HIERARCHY
ROOT hip
{
  OFFSET 0.0 0.0 0.0
  CHANNELS 6 Xposition Yposition Zposition Zrotation Yrotation Xrotation
  JOINT torso
  {
    OFFSET 0.0 0.0 0.0
    CHANNELS 3 Zrotation Xrotation Yrotation
    JOINT neck
    {
      OFFSET -8.600829999999974 327.7417449999999 60.895874000000276
      CHANNELS 3 Zrotation Xrotation Yrotation
      JOINT head
      {
        OFFSET 0.7211610000001087 266.848846 239.12060599999995
        CHANNELS 3 Zrotation Xrotation Yrotation
        End Site
        {
          OFFSET 0.0 0.0 0.0
        }
      }
    }
    JOINT left_collar
    {
      OFFSET -8.600829999999974 327.7417449999999 60.895874000000276
      CHANNELS 3 Zrotation Xrotation Yrotation
      JOINT left_upper_arm
      {
        OFFSET -122.29599000000002 -5.21875 31.800903999999946
        CHANNELS 3 Zrotation Xrotation Yrotation
        JOINT left_forearm
        {
          OFFSET -195.94708199999997 63.423126000000025 226.99352999999996
          CHANNELS 3 Zrotation Xrotation Yrotation
          JOINT left_hand
          {
            OFFSET -232.19226099999992 28.282164999999964 80.86950699999989
            CHANNELS 3 Zrotation Xrotation Yrotation
            End Site
            {
              OFFSET 0.0 0.0 0.0
            }
          }
        }
      }
    }
    JOINT right_collar
    {
      OFFSET -8.600829999999974 327.7417449999999 60.895874000000276
      CHANNELS 3 Zrotation Xrotation Yrotation
      JOINT right_upper_arm
      {
        OFFSET 168.41261300000002 -11.913361000000066 -9.389160000000174
        CHANNELS 3 Zrotation Xrotation Yrotation
        JOINT right_forearm
        {
          OFFSET 213.49279800000005 104.82293699999997 83.52258300000017
          CHANNELS 3 Zrotation Xrotation Yrotation
          JOINT right_hand
          {
            OFFSET 222.067185 62.005675999999994 -110.52026300000034
            CHANNELS 3 Zrotation Xrotation Yrotation
            End Site
            {
              OFFSET 0.0 0.0 0.0
            }
          }
        }
      }
    }
  }
}
MOTION
Frames: 6
Frame Time: 0.01
-508.8081426911901 142.79668262523293 371.6722615093378 2.0933001435940803 -11.079026666588666 -5.07362724657238 2.0674450367998096 6.199377657320542 -0.11052954585348304 -6.700708723939129 -6.8694778111057015 6.099358944430202 0.0 0.0 0.0 -0.48772625515403545 -0.4235760637789932 7.912223906784889 51.17343625116825 42.68390727272912 19.31303287087545 73.44098529314118 30.25837796874306 -5.600506854483885 0.0 0.0 0.0 -0.8163515118641114 -0.2984315204838415 -3.239409775600339 -29.999047971420527 -5.581669231551103 66.9103687358184 13.28650316443192 0.31922701349630456 15.848486705324373 0.0 0.0 0.0
-509.12904952555664 142.8950713003587 371.90666876454213 2.062041519248823 -11.069129687382663 -4.779834013013667 2.1178967273577647 6.20602885886134 -0.11694566388499399 -6.672286053463401 -6.935753192753307 6.074394610256706 0.0 0.0 0.0 -0.478360729342524 -0.4209731883460789 7.889320189209116 51.01776889255902 42.554438529239455 19.372179337371765 73.72733157940742 30.341456412545067 -5.508187394651303 0.0 0.0 0.0 -0.8189334809638307 -0.3062043042663477 -3.3359437597949593 -29.799573041878535 -6.000830622061098 67.29689340019216 13.386422267366637 0.6608841029589253 15.067401328645266 0.0 0.0 0.0
-509.43024416989965 142.9874967151322 372.1406937116396 2.031732554456721 -11.060753558445441 -4.4972417683323505 2.16615928808736 6.215094582360502 -0.12295503304269982 -6.643350374616037 -7.005049095652561 6.048996285380422 0.0 0.0 0.0 -0.46768283548538364 -0.4180398863777601 7.864260430807137 50.874616961487156 42.432858374229696 19.433267103776338 73.99759074995917 30.416723067466393 -5.416420801579342 0.0 0.0 0.0 -0.8305215574598708 -0.31422354612254816 -3.4256590416827044 -29.643207687534808 -6.347574319257196 67.63475073407662 13.473705614842258 0.9702160275707068 14.364352134557238 0.0 0.0 0.0
-509.70943866353036 143.0740272367382 372.3737079299107 2.0028710589137133 -11.053608424418119 -4.22741672129507 2.2118294061903896 6.226315420795746 -0.12851342383236053 -6.614515044456792 -7.077148929872679 6.023717754370306 0.0 0.0 0.0 -0.4560260900484273 -0.4148815355803836 7.838231462782598 50.74484783049306 42.319957415452926 19.495768617693233 74.24956202689967 30.484684859951972 -5.327712302051575 0.0 0.0 0.0 -0.8496389702524684 -0.3223650924088721 -3.508362368567002 -29.52611248182982 -6.626577722758377 67.92798365888444 13.553240804513226 1.2481592421752667 13.739321098124295 0.0 0.0 0.0
-509.96450863779876 143.15474953510014 372.6052159219 1.9761102269735764 -11.047459521459043 -3.9717480491544275 2.2543512796470297 6.239441287406915 -0.133556767695538 -6.586313588058212 -7.1517583447909105 5.999039594463496 0.0 0.0 0.0 -0.4437204030290505 -0.41159628611360305 7.812224963303581 50.62908688856983 42.2163470091714 19.559178570966946 74.48130436552223 30.546110022040704 -5.244736580564274 0.0 0.0 0.0 -0.8747708644344617 -0.33050750094363385 -3.5840309061661895 -29.44422753694114 -6.843249141286541 68.18036734482807 13.628800072568117 1.4956927747134505 13.191660654303888 0.0 0.0 0.0
-510.19354057449056 143.22975678358702 372.83485626109155 1.9522493785242605 -11.042126158911424 -3.7314123640283543 2.2930267610314616 6.25423084039523 -0.13800261826874458 -6.559190570101956 -7.228510722632463 5.975360951217765 0.0 0.0 0.0 -0.4310885697103629 -0.40827356546643084 7.78701571236137 50.52770845417061 42.12245303431534 19.623017086183072 74.69119430964267 30.601993702811974 -5.170243170907323 0.0 0.0 0.0 -0.9044111952195538 -0.3385373416229031 -3.6528154833427307 -29.39333414496214 -7.003589708693601 68.39547978403387 13.703132949754364 1.7138404862957182 12.720025518944071 0.0 0.0 0.0
